{"asset":{"version":"2.0","generator":"THREE.GLTFExporter"},"scenes":[{"nodes":[0],"name":"AuxScene"}],"scene":0,"nodes":[{"mesh":0}],"bufferViews":[{"buffer":0,"byteOffset":0,"byteLength":2376,"target":34962,"byteStride":12},{"buffer":0,"byteOffset":2376,"byteLength":2376,"target":34962,"byteStride":12}],"buffers":[{"byteLength":4752,"uri":"data:application/octet-stream;base64,"}],"accessors":[{"bufferView":0,"componentType":5126,"count":198,"max":[97,1.399999976158142,85.00811767578125],"min":[-97,0.20000000298023224,-108.99188232421875],"type":"VEC3"},{"bufferView":1,"componentType":5126,"count":198,"max":[0.06634165346622467,1,0.09913577884435654],"min":[-0.09874286502599716,0.987428605556488,-0.123428575694561],"type":"VEC3"}],"materials":[{"pbrMetallicRoughness":{"baseColorFactor":[0.5019607843137255,0.5019607843137255,0.5019607843137255,1],"metallicFactor":0,"roughnessFactor":1}}],"meshes":[{"primitives":[{"mode":4,"attributes":{"POSITION":0,"NORMAL":1},"material":0}]}]}